<?xml version="1.0" encoding="UTF-8"?>
<!DOCTYPE svg PUBLIC "-//W3C//DTD SVG 1.1//EN" "http://www.w3.org/Graphics/SVG/1.1/DTD/svg11.dtd">
<svg xmlns="http://www.w3.org/2000/svg" version="1.1" width="500px" height="500px" style="shape-rendering:geometricPrecision; text-rendering:geometricPrecision; image-rendering:optimizeQuality; fill-rule:evenodd; clip-rule:evenodd" xmlns:xlink="http://www.w3.org/1999/xlink">
<g><path style="opacity:1" fill="#fbfbfb" d="M 338.5,309.5 C 337.508,309.672 336.842,309.338 336.5,308.5C 337.773,307.923 337.773,307.257 336.5,306.5C 314.112,292.061 294.279,295.061 277,315.5C 267.363,330.576 267.029,345.909 276,361.5C 281.289,367.578 287.122,373.078 293.5,378C 296.674,379.725 300.007,381.058 303.5,382C 313.696,382.569 323.696,382.069 333.5,380.5C 334.167,380.5 334.5,380.833 334.5,381.5C 337.903,385.449 339.569,390.116 339.5,395.5C 338.164,410.009 331.831,421.842 320.5,431C 315.853,433.634 311.187,436.301 306.5,439C 279.001,448.091 251.001,449.924 222.5,444.5C 215.891,446.963 209.057,448.296 202,448.5C 166.218,446.525 136.052,432.525 111.5,406.5C 108.411,402.751 105.744,398.751 103.5,394.5C 98.0358,392.289 92.7024,389.789 87.5,387C 71.6595,371.153 61.1595,352.32 56,330.5C 52.7493,313.326 51.0827,295.993 51,278.5C 47.6173,272.646 45.6173,266.313 45,259.5C 42.3468,233.609 47.0134,209.275 59,186.5C 60.1643,179.837 63.1643,174.17 68,169.5C 69.101,164.945 71.4344,161.279 75,158.5C 77.0711,154.697 79.4044,151.03 82,147.5C 88.612,141.445 95.112,135.279 101.5,129C 107.632,125.037 113.632,120.87 119.5,116.5C 119.833,115.667 120.167,114.833 120.5,114C 116.156,99.4232 115.323,84.5899 118,69.5C 123.318,54.8131 133.818,48.6464 149.5,51C 161.787,54.4885 174.12,57.8218 186.5,61C 203.067,64.5987 219.733,65.5987 236.5,64C 275.266,50.5228 313.599,51.5228 351.5,67C 383.474,67.2185 412.474,76.2185 438.5,94C 441.64,97.1396 444.806,100.306 448,103.5C 449.935,106.552 451.268,109.885 452,113.5C 454.759,132.394 453.759,151.061 449,169.5C 446.378,176.744 442.712,183.411 438,189.5C 437.199,194.566 435.533,199.232 433,203.5C 429.658,207.174 425.992,210.508 422,213.5C 421.833,214.333 421.667,215.167 421.5,216C 424.575,225.651 428.075,235.151 432,244.5C 437.403,268.243 431.903,288.743 415.5,306C 396.787,319.599 376.121,322.932 353.5,316C 348.557,313.612 343.724,311.112 339,308.5C 338.601,308.728 338.435,309.062 338.5,309.5 Z"/></g>
<g><path style="opacity:1" fill="#020202" d="M 154.5,78.5 C 156.515,79.9238 158.848,80.5905 161.5,80.5C 161.833,80.5 162.167,80.5 162.5,80.5C 164.102,82.0739 166.102,82.7406 168.5,82.5C 171.37,83.6336 174.37,84.3003 177.5,84.5C 179.515,85.9238 181.848,86.5905 184.5,86.5C 184.833,86.5 185.167,86.5 185.5,86.5C 187.838,88.0395 190.505,88.7062 193.5,88.5C 201.107,90.0268 208.94,90.6934 217,90.5C 222.677,90.4994 228.177,90.1661 233.5,89.5C 246.396,87.7748 259.063,85.1081 271.5,81.5C 281.092,79.9114 290.758,79.2448 300.5,79.5C 303.167,79.8333 305.833,80.1667 308.5,80.5C 310.515,81.9238 312.848,82.5905 315.5,82.5C 319.421,84.0294 323.421,85.3627 327.5,86.5C 331.502,88.6098 335.835,89.9431 340.5,90.5C 343.421,91.4812 346.421,92.3146 349.5,93C 360.97,93.0325 372.303,94.1992 383.5,96.5C 385.936,97.871 388.603,98.871 391.5,99.5C 395.75,101.362 400.083,103.028 404.5,104.5C 404.973,105.906 405.973,106.573 407.5,106.5C 414.159,109.497 420.159,113.497 425.5,118.5C 427.623,120.745 428.623,123.412 428.5,126.5C 427.127,126.657 425.793,126.49 424.5,126C 419.12,122.927 413.786,119.76 408.5,116.5C 408.167,116.833 407.833,117.167 407.5,117.5C 411.742,124.242 417.408,129.409 424.5,133C 428.039,136.387 429.372,140.553 428.5,145.5C 427.156,151.161 425.489,156.828 423.5,162.5C 421.706,167.262 419.039,171.428 415.5,175C 413.982,182.038 410.649,188.038 405.5,193C 403.975,194.009 402.308,194.509 400.5,194.5C 400.5,192.833 400.5,191.167 400.5,189.5C 400.904,184.878 401.904,180.378 403.5,176C 401.105,174.402 398.772,174.236 396.5,175.5C 392.895,186.104 385.895,193.437 375.5,197.5C 376.499,189.189 376.665,180.856 376,172.5C 369.013,170.465 361.846,169.465 354.5,169.5C 334.66,165.448 318.993,171.781 307.5,188.5C 305.538,190.425 304.705,192.758 305,195.5C 306.176,193.804 307.343,192.138 308.5,190.5C 316.525,180.833 326.859,175.5 339.5,174.5C 333.263,179.23 327.43,184.563 322,190.5C 319.888,193.727 318.055,197.06 316.5,200.5C 315.076,202.515 314.41,204.848 314.5,207.5C 310.772,219.321 314.439,227.988 325.5,233.5C 315.38,234.522 307.547,230.522 302,221.5C 301.543,226.08 303.376,229.58 307.5,232C 315.703,235.869 324.37,237.702 333.5,237.5C 334.167,237.5 334.833,237.5 335.5,237.5C 338.273,238.657 341.273,239.324 344.5,239.5C 347.698,240.787 351.031,241.453 354.5,241.5C 358.874,243.451 363.54,244.784 368.5,245.5C 368.833,243.5 369.167,241.5 369.5,239.5C 370.167,239.5 370.5,239.167 370.5,238.5C 373.035,234.645 374.035,230.312 373.5,225.5C 373.5,224.833 373.5,224.167 373.5,223.5C 373.972,221.469 374.972,219.802 376.5,218.5C 381.837,222.836 384.837,228.503 385.5,235.5C 383.412,243.328 386.079,245.995 393.5,243.5C 389.15,243.122 387.483,240.789 388.5,236.5C 389.45,230.418 390.783,224.418 392.5,218.5C 395.291,221.749 397.291,225.415 398.5,229.5C 398.259,231.898 398.926,233.898 400.5,235.5C 401.844,241.535 404.344,247.201 408,252.5C 408.825,259.614 408.325,266.614 406.5,273.5C 403.587,278.422 400.254,283.088 396.5,287.5C 386.958,293.154 376.625,294.987 365.5,293C 356.997,287.916 348.664,282.583 340.5,277C 336.191,275.673 331.858,274.506 327.5,273.5C 322.252,271.978 316.752,271.311 311,271.5C 305.568,271.281 300.401,271.948 295.5,273.5C 292.284,273.345 289.617,274.345 287.5,276.5C 281.946,278.129 276.28,279.129 270.5,279.5C 260.815,279.578 251.148,279.245 241.5,278.5C 237.225,277.348 232.892,276.348 228.5,275.5C 210.866,267.532 197.866,254.865 189.5,237.5C 186.707,230.781 184.707,223.781 183.5,216.5C 183.162,214.146 182.662,211.813 182,209.5C 181.185,214.352 181.352,219.019 182.5,223.5C 183.192,229.564 184.859,235.231 187.5,240.5C 195.102,259.102 208.102,272.436 226.5,280.5C 229.797,282.601 233.463,283.935 237.5,284.5C 239.515,285.924 241.848,286.59 244.5,286.5C 246.042,287.301 247.708,287.634 249.5,287.5C 254.833,288.167 260.167,288.833 265.5,289.5C 261.078,293.587 257.411,298.254 254.5,303.5C 252.412,305.336 251.079,307.669 250.5,310.5C 248.925,312.547 247.925,314.881 247.5,317.5C 245.926,319.102 245.259,321.102 245.5,323.5C 244.313,327.905 243.646,332.405 243.5,337C 243.958,341.829 244.291,346.662 244.5,351.5C 244.41,354.152 245.076,356.485 246.5,358.5C 255.51,386.507 274.51,403.174 303.5,408.5C 299.64,411.93 295.307,414.597 290.5,416.5C 284.141,418.494 277.808,420.161 271.5,421.5C 248,424.018 225.333,420.852 203.5,412C 196.512,409.165 190.179,405.331 184.5,400.5C 183.678,398.272 182.345,397.605 180.5,398.5C 181.521,399.901 182.521,401.235 183.5,402.5C 187.951,411.452 194.618,418.285 203.5,423C 164.05,420.353 135.383,401.519 117.5,366.5C 116.165,362.828 114.832,359.162 113.5,355.5C 112.538,351.605 111.204,347.939 109.5,344.5C 108.716,339.8 107.716,335.134 106.5,330.5C 106.167,330.833 105.833,331.167 105.5,331.5C 104.533,339.11 104.2,346.777 104.5,354.5C 104.729,358.082 104.729,361.416 104.5,364.5C 98.8667,359.224 94.2,353.224 90.5,346.5C 90.573,344.973 89.9063,343.973 88.5,343.5C 84.3184,334.489 81.3184,325.155 79.5,315.5C 79.1916,311.64 78.5249,307.974 77.5,304.5C 77.5,296.167 77.5,287.833 77.5,279.5C 78.9715,275.081 79.6382,270.414 79.5,265.5C 79.5,265.167 79.5,264.833 79.5,264.5C 80.9238,262.485 81.5905,260.152 81.5,257.5C 82.829,252.184 84.1623,246.851 85.5,241.5C 87.4119,238.319 89.2452,234.985 91,231.5C 91.6667,230.5 91.6667,229.5 91,228.5C 87.204,232.449 84.0374,236.783 81.5,241.5C 78.9368,245.17 76.9368,249.17 75.5,253.5C 74.065,255.598 72.8984,257.931 72,260.5C 71.7679,259.263 71.2679,258.263 70.5,257.5C 68.7128,246.539 69.3795,235.872 72.5,225.5C 73.9238,223.485 74.5905,221.152 74.5,218.5C 86.678,175.314 113.678,145.314 155.5,128.5C 162.997,129.476 170.33,129.476 177.5,128.5C 181.391,128.197 184.724,126.697 187.5,124C 166.205,127.523 151.539,119.357 143.5,99.5C 141.844,93.6362 141.177,87.6362 141.5,81.5C 142.738,79.7857 143.405,77.7857 143.5,75.5C 147.049,76.6792 150.716,77.6792 154.5,78.5 Z"/></g>
<g><path style="opacity:0.411" fill="#d8d8d8" d="M 338.5,309.5 C 338.435,309.062 338.601,308.728 339,308.5C 343.724,311.112 348.557,313.612 353.5,316C 376.121,322.932 396.787,319.599 415.5,306C 431.903,288.743 437.403,268.243 432,244.5C 428.075,235.151 424.575,225.651 421.5,216C 421.667,215.167 421.833,214.333 422,213.5C 425.992,210.508 429.658,207.174 433,203.5C 435.533,199.232 437.199,194.566 438,189.5C 442.712,183.411 446.378,176.744 449,169.5C 453.759,151.061 454.759,132.394 452,113.5C 451.268,109.885 449.935,106.552 448,103.5C 444.806,100.306 441.64,97.1396 438.5,94C 412.474,76.2185 383.474,67.2185 351.5,67C 313.599,51.5228 275.266,50.5228 236.5,64C 219.733,65.5987 203.067,64.5987 186.5,61C 174.12,57.8218 161.787,54.4885 149.5,51C 133.818,48.6464 123.318,54.8131 118,69.5C 115.323,84.5899 116.156,99.4232 120.5,114C 120.167,114.833 119.833,115.667 119.5,116.5C 113.632,120.87 107.632,125.037 101.5,129C 95.112,135.279 88.612,141.445 82,147.5C 79.4044,151.03 77.0711,154.697 75,158.5C 71.4344,161.279 69.101,164.945 68,169.5C 63.1643,174.17 60.1643,179.837 59,186.5C 47.0134,209.275 42.3468,233.609 45,259.5C 45.6173,266.313 47.6173,272.646 51,278.5C 51.0827,295.993 52.7493,313.326 56,330.5C 61.1595,352.32 71.6595,371.153 87.5,387C 92.7024,389.789 98.0358,392.289 103.5,394.5C 105.744,398.751 108.411,402.751 111.5,406.5C 136.052,432.525 166.218,446.525 202,448.5C 209.057,448.296 215.891,446.963 222.5,444.5C 251.001,449.924 279.001,448.091 306.5,439C 311.187,436.301 315.853,433.634 320.5,431C 331.831,421.842 338.164,410.009 339.5,395.5C 339.569,390.116 337.903,385.449 334.5,381.5C 336.679,381.84 338.512,382.84 340,384.5C 343.467,397.111 341.467,408.777 334,419.5C 324.653,431.765 312.486,439.931 297.5,444C 273.332,449.013 248.999,449.846 224.5,446.5C 185.566,453.874 150.899,444.707 120.5,419C 113.127,411.296 106.127,403.296 99.5,395C 88.0377,390.882 78.871,383.716 72,373.5C 60.0286,354.587 53.0286,333.92 51,311.5C 50.1235,300.847 49.4568,290.18 49,279.5C 35.087,223.822 48.587,175.822 89.5,135.5C 97.693,127.13 106.86,120.13 117,114.5C 115.894,105.742 115.061,96.9083 114.5,88C 113.835,54.6504 129.501,42.3171 161.5,51C 179.953,58.4239 199.12,62.2573 219,62.5C 231.918,62.7395 244.418,60.5728 256.5,56C 278.1,50.5266 299.767,50.1932 321.5,55C 332.309,58.9361 343.309,62.2694 354.5,65C 387.172,64.8912 416.506,74.5578 442.5,94C 449.404,99.9109 453.237,107.411 454,116.5C 460.133,155.09 449.967,188.59 423.5,217C 430.145,230.626 434.478,244.959 436.5,260C 436.224,275.831 431.391,289.997 422,302.5C 405.46,318.86 385.627,324.694 362.5,320C 353.771,317.932 345.771,314.432 338.5,309.5 Z"/></g>
<g><path style="opacity:1" fill="#474747" d="M 249.5,287.5 C 255.206,287.171 260.872,287.505 266.5,288.5C 266.376,289.107 266.043,289.44 265.5,289.5C 260.167,288.833 254.833,288.167 249.5,287.5 Z"/></g>
<g><path style="opacity:1" fill="#9c9c9c" d="M 237.5,284.5 C 240.152,284.41 242.485,285.076 244.5,286.5C 241.848,286.59 239.515,285.924 237.5,284.5 Z"/></g>
<g><path style="opacity:1" fill="#2b2b2b" d="M 241.5,278.5 C 251.148,279.245 260.815,279.578 270.5,279.5C 266.681,280.166 262.681,280.499 258.5,280.5C 252.583,280.695 246.916,280.029 241.5,278.5 Z"/></g>
<g><path style="opacity:1" fill="#d1d1d1" d="M 406.5,273.5 C 406.414,274.496 406.748,275.329 407.5,276C 404.704,279.31 402.037,282.81 399.5,286.5C 398.583,287.127 397.583,287.461 396.5,287.5C 400.254,283.088 403.587,278.422 406.5,273.5 Z"/></g>
<g><path style="opacity:1" fill="#a3a3a3" d="M 295.5,273.5 C 293.064,274.871 290.397,275.871 287.5,276.5C 289.617,274.345 292.284,273.345 295.5,273.5 Z"/></g>
<g><path style="opacity:1" fill="#e6e6e6" d="M 189.5,237.5 C 197.866,254.865 210.866,267.532 228.5,275.5C 226.744,276.552 226.077,278.219 226.5,280.5C 208.102,272.436 195.102,259.102 187.5,240.5C 187.285,238.821 187.952,237.821 189.5,237.5 Z"/></g>
<g><path style="opacity:1" fill="#3f3f3f" d="M 79.5,265.5 C 79.6382,270.414 78.9715,275.081 77.5,279.5C 77.3618,274.586 78.0285,269.919 79.5,265.5 Z"/></g>
<g><path style="opacity:1" fill="#c2c2c2" d="M 327.5,273.5 C 316.558,272.284 305.891,272.284 295.5,273.5C 300.401,271.948 305.568,271.281 311,271.5C 316.752,271.311 322.252,271.978 327.5,273.5 Z"/></g>
<g><path style="opacity:1" fill="#5d5d5d" d="M 81.5,257.5 C 81.5905,260.152 80.9238,262.485 79.5,264.5C 79.4095,261.848 80.0762,259.515 81.5,257.5 Z"/></g>
<g><path style="opacity:1" fill="#929292" d="M 75.5,253.5 C 75.4535,256.928 74.2868,259.928 72,262.5C 70.7308,261.095 70.2308,259.429 70.5,257.5C 71.2679,258.263 71.7679,259.263 72,260.5C 72.8984,257.931 74.065,255.598 75.5,253.5 Z"/></g>
<g><path style="opacity:1" fill="#b4b4b4" d="M 385.5,235.5 C 386.222,235.918 386.722,236.584 387,237.5C 387.383,236.944 387.883,236.611 388.5,236.5C 387.483,240.789 389.15,243.122 393.5,243.5C 386.079,245.995 383.412,243.328 385.5,235.5 Z"/></g>
<g><path style="opacity:1" fill="#d4d4d4" d="M 369.5,239.5 C 369.167,241.5 368.833,243.5 368.5,245.5C 363.54,244.784 358.874,243.451 354.5,241.5C 357.608,240.386 360.775,240.386 364,241.5C 366.121,241.302 367.954,240.636 369.5,239.5 Z"/></g>
<g><path style="opacity:1" fill="#c1c1c1" d="M 344.5,239.5 C 341.273,239.324 338.273,238.657 335.5,237.5C 338.119,237.768 340.619,237.435 343,236.5C 344.039,237.244 344.539,238.244 344.5,239.5 Z"/></g>
<g><path style="opacity:1" fill="#cccccc" d="M 85.5,241.5 C 85.6309,240.624 85.2975,239.957 84.5,239.5C 83.4822,240.193 82.4822,240.859 81.5,241.5C 84.0374,236.783 87.204,232.449 91,228.5C 91.6667,229.5 91.6667,230.5 91,231.5C 89.2452,234.985 87.4119,238.319 85.5,241.5 Z"/></g>
<g><path style="opacity:1" fill="#454545" d="M 398.5,229.5 C 400.074,231.102 400.741,233.102 400.5,235.5C 398.926,233.898 398.259,231.898 398.5,229.5 Z"/></g>
<g><path style="opacity:1" fill="#c9c9c9" d="M 183.5,216.5 C 184.707,223.781 186.707,230.781 189.5,237.5C 187.952,237.821 187.285,238.821 187.5,240.5C 184.859,235.231 183.192,229.564 182.5,223.5C 182.198,220.941 182.532,218.607 183.5,216.5 Z"/></g>
<g><path style="opacity:1" fill="#353535" d="M 373.5,225.5 C 374.035,230.312 373.035,234.645 370.5,238.5C 371.34,234.015 372.34,229.681 373.5,225.5 Z"/></g>
<g><path style="opacity:1" fill="#c0c0c0" d="M 325.5,233.5 C 326.404,234.209 326.737,235.209 326.5,236.5C 329.059,236.198 331.393,236.532 333.5,237.5C 324.37,237.702 315.703,235.869 307.5,232C 303.376,229.58 301.543,226.08 302,221.5C 307.547,230.522 315.38,234.522 325.5,233.5 Z"/></g>
<g><path style="opacity:1" fill="#515151" d="M 74.5,218.5 C 74.5905,221.152 73.9238,223.485 72.5,225.5C 72.4095,222.848 73.0762,220.515 74.5,218.5 Z"/></g>
<g><path style="opacity:1" fill="#505050" d="M 376.5,218.5 C 374.972,219.802 373.972,221.469 373.5,223.5C 373.5,221.5 373.5,219.5 373.5,217.5C 374.791,217.263 375.791,217.596 376.5,218.5 Z"/></g>
<g><path style="opacity:1" fill="#737373" d="M 183.5,216.5 C 182.532,218.607 182.198,220.941 182.5,223.5C 181.352,219.019 181.185,214.352 182,209.5C 182.662,211.813 183.162,214.146 183.5,216.5 Z"/></g>
<g><path style="opacity:1" fill="#ababab" d="M 316.5,200.5 C 316.59,203.152 315.924,205.485 314.5,207.5C 314.41,204.848 315.076,202.515 316.5,200.5 Z"/></g>
<g><path style="opacity:1" fill="#767676" d="M 307.5,188.5 C 307.328,189.492 307.662,190.158 308.5,190.5C 307.343,192.138 306.176,193.804 305,195.5C 304.705,192.758 305.538,190.425 307.5,188.5 Z"/></g>
<g><path style="opacity:1" fill="#747474" d="M 396.5,175.5 C 398.772,174.236 401.105,174.402 403.5,176C 401.904,180.378 400.904,184.878 400.5,189.5C 400.5,184.833 400.5,180.167 400.5,175.5C 399.167,175.5 397.833,175.5 396.5,175.5 Z"/></g>
<g><path style="opacity:1" fill="#dcdcdc" d="M 354.5,169.5 C 348.445,169.338 342.445,169.838 336.5,171C 335.692,171.308 335.025,171.808 334.5,172.5C 336.291,173.17 337.958,173.837 339.5,174.5C 326.859,175.5 316.525,180.833 308.5,190.5C 307.662,190.158 307.328,189.492 307.5,188.5C 318.993,171.781 334.66,165.448 354.5,169.5 Z"/></g>
<g><path style="opacity:1" fill="#c7c7c7" d="M 428.5,145.5 C 428.182,149.44 428.182,153.273 428.5,157C 426.707,158.779 425.041,160.612 423.5,162.5C 425.489,156.828 427.156,151.161 428.5,145.5 Z"/></g>
<g><path style="opacity:1" fill="#919191" d="M 155.5,128.5 C 162.655,127.915 169.988,127.915 177.5,128.5C 170.33,129.476 162.997,129.476 155.5,128.5 Z"/></g>
<g><path style="opacity:1" fill="#dedede" d="M 320.5,105.5 C 322.833,106.167 325.167,106.833 327.5,107.5C 324.319,109.172 320.986,110.506 317.5,111.5C 316.167,111.167 314.833,110.833 313.5,110.5C 315.043,107.61 317.376,105.943 320.5,105.5 Z"/></g>
<g><path style="opacity:1" fill="#585858" d="M 290.5,105.5 C 293.28,106.078 295.947,106.745 298.5,107.5C 295.302,108.036 292.635,107.369 290.5,105.5 Z"/></g>
<g><path style="opacity:1" fill="#767676" d="M 404.5,104.5 C 406.027,104.427 407.027,105.094 407.5,106.5C 405.973,106.573 404.973,105.906 404.5,104.5 Z"/></g>
<g><path style="opacity:1" fill="#646464" d="M 320.5,105.5 C 323.247,105.187 325.914,105.52 328.5,106.5C 328.376,107.107 328.043,107.44 327.5,107.5C 325.167,106.833 322.833,106.167 320.5,105.5 Z"/></g>
<g><path style="opacity:1" fill="#8f8f8f" d="M 383.5,96.5 C 386.716,96.3455 389.383,97.3455 391.5,99.5C 388.603,98.871 385.936,97.871 383.5,96.5 Z"/></g>
<g><path style="opacity:1" fill="#f0f0f0" d="M 290.5,94.5 C 292.265,93.5386 294.265,93.2053 296.5,93.5C 303.055,95.2686 308.388,98.7686 312.5,104C 312.349,106.644 311.349,108.811 309.5,110.5C 306.009,108.868 302.342,107.868 298.5,107.5C 295.947,106.745 293.28,106.078 290.5,105.5C 290.108,102.052 290.775,98.8857 292.5,96C 292.164,94.9701 291.497,94.4701 290.5,94.5 Z"/></g>
<g><path style="opacity:1" fill="#8f8f8f" d="M 296.5,93.5 C 294.265,93.2053 292.265,93.5386 290.5,94.5C 289.127,94.6567 287.793,94.49 286.5,94C 286.833,93.6667 287.167,93.3333 287.5,93C 290.696,92.1955 293.696,92.3622 296.5,93.5 Z"/></g>
<g><path style="opacity:1" fill="#8b8b8b" d="M 193.5,88.5 C 206.815,89.3327 220.149,89.6661 233.5,89.5C 228.177,90.1661 222.677,90.4994 217,90.5C 208.94,90.6934 201.107,90.0268 193.5,88.5 Z"/></g>
<g><path style="opacity:1" fill="#9c9c9c" d="M 141.5,81.5 C 141.177,87.6362 141.844,93.6362 143.5,99.5C 142.207,98.158 141.374,96.4913 141,94.5C 140.186,89.9796 140.353,85.6463 141.5,81.5 Z"/></g>
<g><path style="opacity:1" fill="#7c7c7c" d="M 185.5,86.5 C 188.428,86.5651 191.095,87.2318 193.5,88.5C 190.505,88.7062 187.838,88.0395 185.5,86.5 Z"/></g>
<g><path style="opacity:1" fill="#969696" d="M 327.5,86.5 C 332.165,87.0569 336.498,88.3902 340.5,90.5C 335.835,89.9431 331.502,88.6098 327.5,86.5 Z"/></g>
<g><path style="opacity:1" fill="#a4a4a4" d="M 177.5,84.5 C 180.152,84.4095 182.485,85.0762 184.5,86.5C 181.848,86.5905 179.515,85.9238 177.5,84.5 Z"/></g>
<g><path style="opacity:1" fill="#a3a3a3" d="M 162.5,80.5 C 164.898,80.2594 166.898,80.9261 168.5,82.5C 166.102,82.7406 164.102,82.0739 162.5,80.5 Z"/></g>
<g><path style="opacity:1" fill="#929292" d="M 308.5,80.5 C 311.152,80.4095 313.485,81.0762 315.5,82.5C 312.848,82.5905 310.515,81.9238 308.5,80.5 Z"/></g>
<g><path style="opacity:1" fill="#767676" d="M 300.5,79.5 C 290.758,79.2448 281.092,79.9114 271.5,81.5C 274.149,79.8906 277.149,79.0572 280.5,79C 287.346,78.1794 294.013,78.346 300.5,79.5 Z"/></g>
<g><path style="opacity:1" fill="#8e8e8e" d="M 154.5,78.5 C 157.152,78.4095 159.485,79.0762 161.5,80.5C 158.848,80.5905 156.515,79.9238 154.5,78.5 Z"/></g>
<g><path style="opacity:1" fill="#c4c4c4" d="M 254.5,303.5 C 254.955,306.931 253.621,309.264 250.5,310.5C 251.079,307.669 252.412,305.336 254.5,303.5 Z"/></g>
<g><path style="opacity:1" fill="#b0b0b0" d="M 77.5,304.5 C 78.5249,307.974 79.1916,311.64 79.5,315.5C 78.8826,315.389 78.3826,315.056 78,314.5C 77.5017,311.183 77.335,307.85 77.5,304.5 Z"/></g>
<g><path style="opacity:1" fill="#858585" d="M 247.5,317.5 C 247.741,319.898 247.074,321.898 245.5,323.5C 245.259,321.102 245.926,319.102 247.5,317.5 Z"/></g>
<g><path style="opacity:1" fill="#ececec" d="M 109.5,344.5 C 109.677,348.708 111.01,352.374 113.5,355.5C 114.832,359.162 116.165,362.828 117.5,366.5C 116.883,366.389 116.383,366.056 116,365.5C 113.512,366.647 111.512,368.314 110,370.5C 108.508,369.08 107.008,367.746 105.5,366.5C 106.496,362.446 106.162,358.446 104.5,354.5C 104.2,346.777 104.533,339.11 105.5,331.5C 105.833,331.167 106.167,330.833 106.5,330.5C 107.716,335.134 108.716,339.8 109.5,344.5 Z"/></g>
<g><path style="opacity:1" fill="#8f8f8f" d="M 88.5,343.5 C 89.9063,343.973 90.573,344.973 90.5,346.5C 89.0937,346.027 88.427,345.027 88.5,343.5 Z"/></g>
<g><path style="opacity:0.221" fill="#dbdbdb" d="M 336.5,308.5 C 321.763,297.538 306.43,296.704 290.5,306C 271.464,319.692 266.964,337.192 277,358.5C 283.821,368.653 292.988,375.82 304.5,380C 314.196,379.874 323.863,380.04 333.5,380.5C 323.696,382.069 313.696,382.569 303.5,382C 300.007,381.058 296.674,379.725 293.5,378C 287.122,373.078 281.289,367.578 276,361.5C 267.029,345.909 267.363,330.576 277,315.5C 294.279,295.061 314.112,292.061 336.5,306.5C 337.773,307.257 337.773,307.923 336.5,308.5 Z"/></g>
<g><path style="opacity:1" fill="#8e8e8e" d="M 109.5,344.5 C 111.204,347.939 112.538,351.605 113.5,355.5C 111.01,352.374 109.677,348.708 109.5,344.5 Z"/></g>
<g><path style="opacity:1" fill="#4b4b4b" d="M 244.5,351.5 C 245.924,353.515 246.59,355.848 246.5,358.5C 245.076,356.485 244.41,354.152 244.5,351.5 Z"/></g>
<g><path style="opacity:1" fill="#404040" d="M 104.5,354.5 C 106.162,358.446 106.496,362.446 105.5,366.5C 104.662,366.158 104.328,365.492 104.5,364.5C 104.729,361.416 104.729,358.082 104.5,354.5 Z"/></g>
<g><path style="opacity:1" fill="#979797" d="M 184.5,400.5 C 183.662,400.842 183.328,401.508 183.5,402.5C 182.521,401.235 181.521,399.901 180.5,398.5C 182.345,397.605 183.678,398.272 184.5,400.5 Z"/></g>
<g><path style="opacity:1" fill="#c3c3c3" d="M 290.5,416.5 C 287.634,418.761 284.301,420.261 280.5,421C 280.833,421.333 281.167,421.667 281.5,422C 278.2,421.954 274.866,421.788 271.5,421.5C 277.808,420.161 284.141,418.494 290.5,416.5 Z"/></g>
</svg>
